HIERARCHY
ROOT Pelvis
{
	OFFSET 0.000000 0.000000 0.000000
	CHANNELS 6 Xposition Yposition Zposition Xrotation Yrotation Zrotation
	JOINT LeftUpLeg_virtual
	{
		OFFSET 0.000000 0.000000 0.000000
		CHANNELS 3 Xrotation Yrotation Zrotation
		JOINT LeftUpLeg
		{
			OFFSET 18.735201 -5.666702 -4.541200
			CHANNELS 3 Xrotation Yrotation Zrotation
			JOINT LeftLeg
			{
				OFFSET -0.021200 -31.938179 0.493100
				CHANNELS 3 Xrotation Yrotation Zrotation
				JOINT LeftFoot
				{
					OFFSET 0.021200 -31.938179 -4.336299
					CHANNELS 3 Xrotation Yrotation Zrotation
					JOINT LeftToeBase
					{
						OFFSET 0.943001 -26.722000 15.023500
						CHANNELS 3 Xrotation Yrotation Zrotation
						End Site
						{
							OFFSET 0 0 0
						}
					}
				}
			}
		}
	}
	JOINT RightUpLeg_virtual
	{
		OFFSET 0.000000 0.000000 0.000000
		CHANNELS 3 Xrotation Yrotation Zrotation
		JOINT RightUpLeg
		{
			OFFSET -18.735201 -5.666702 -4.541200
			CHANNELS 3 Xrotation Yrotation Zrotation
			JOINT RightLeg
			{
				OFFSET 0.018946 -31.938133 0.493100
				CHANNELS 3 Xrotation Yrotation Zrotation
				JOINT RightFoot
				{
					OFFSET -0.018946 -31.938126 -4.336299
					CHANNELS 3 Xrotation Yrotation Zrotation
					JOINT RightToeBase
					{
						OFFSET -0.943001 -26.722004 15.023500
						CHANNELS 3 Xrotation Yrotation Zrotation
						End Site
						{
							OFFSET 0 0 0
						}
					}
				}
			}
		}
	}
	JOINT Hips_virtual
	{
		OFFSET 0.000000 0.000000 0.000000
		CHANNELS 3 Xrotation Yrotation Zrotation
		JOINT Hips
		{
			OFFSET -0.000000 -0.000000 -0.000000
			CHANNELS 3 Xrotation Yrotation Zrotation
			JOINT Spine
			{
				OFFSET 0.000000 10.199997 -0.299500
				CHANNELS 3 Xrotation Yrotation Zrotation
				JOINT Spine1
				{
					OFFSET 0.000000 11.900002 -1.516600
					CHANNELS 3 Xrotation Yrotation Zrotation
					JOINT Spine2
					{
						OFFSET 0.000000 13.600006 -2.842500
						CHANNELS 3 Xrotation Yrotation Zrotation
						JOINT Neck_virtual
						{
							OFFSET 0.000000 0.000000 0.000000
							CHANNELS 3 Xrotation Yrotation Zrotation
							JOINT Neck
							{
								OFFSET 0.000000 9.624100 -2.890100
								CHANNELS 3 Xrotation Yrotation Zrotation
								JOINT Head
								{
									OFFSET 0.000000 14.068802 -1.351900
									CHANNELS 3 Xrotation Yrotation Zrotation
									End Site
									{
										OFFSET 0 0 0
									}
								}
							}
						}
						JOINT LeftShoulder_virtual
						{
							OFFSET 0.000000 0.000000 0.000000
							CHANNELS 3 Xrotation Yrotation Zrotation
							JOINT LeftShoulder
							{
								OFFSET 15.263000 10.923401 -0.547700
								CHANNELS 3 Xrotation Yrotation Zrotation
								JOINT LeftArm
								{
									OFFSET 25.438599 -2.830597 -13.032500
									CHANNELS 3 Xrotation Yrotation Zrotation
									JOINT LeftForeArm
									{
										OFFSET 29.960503 0.000000 0.000000
										CHANNELS 3 Xrotation Yrotation Zrotation
										JOINT LeftHand
										{
											OFFSET 27.849251 0.000000 0.000000
											CHANNELS 3 Xrotation Yrotation Zrotation
											End Site
											{
												OFFSET 0 0 0
											}
										}
									}
								}
							}
						}
						JOINT RightShoulder_virtual
						{
							OFFSET 0.000000 0.000000 0.000000
							CHANNELS 3 Xrotation Yrotation Zrotation
							JOINT RightShoulder
							{
								OFFSET -15.263000 10.923401 -0.547700
								CHANNELS 3 Xrotation Yrotation Zrotation
								JOINT RightArm
								{
									OFFSET -25.438599 -2.830597 -13.032500
									CHANNELS 3 Xrotation Yrotation Zrotation
									JOINT RightForeArm
									{
										OFFSET -29.960503 0.000000 0.000000
										CHANNELS 3 Xrotation Yrotation Zrotation
										JOINT RightHand
										{
											OFFSET -27.849251 0.000000 0.000000
											CHANNELS 3 Xrotation Yrotation Zrotation
											End Site
											{
												OFFSET 0 0 0
											}
										}
									}
								}
							}
						}
					}
				}
			}
		}
	}
}
MOTION
Frames: 7
Frame Time: 0.03333333
5.976768 91.862915 3.270893 0.000000 0.000000 0.000000 -0.107869 -12.587768 -2.376450 -16.702512 20.179905 9.653901 26.989933 10.532787 6.816309 -10.558655 11.507793 -10.078324 0.000000 0.000000 0.000000 -0.498934 -11.178607 -2.761365 -18.339587 -18.509282 -11.189847 12.802523 10.039589 -3.467376 4.669859 8.686879 12.308609 0.000000 0.000000 0.000000 -0.433528 -11.560577 -2.250336 -0.182733 0.188334 -0.709166 2.614847 -0.683851 -1.656573 -0.394118 -0.615062 -0.549321 0.000000 0.000000 0.000000 -0.663992 -0.564548 -0.777874 0.213773 1.039164 0.391577 0.000000 0.000000 0.000000 -0.384018 -0.576095 -0.920318 -0.936500 9.677215 -3.094830 41.292598 -61.769697 -24.617021 -0.417806 -29.209058 -0.658832 0.000000 0.000000 0.000000 -0.713558 -0.470678 -0.577992 4.558960 6.474508 -15.693483 -38.595975 -18.897151 36.742227 -177.129236 73.828321 177.271099 0.000000 0.000000 0.000000 
5.693089 91.893677 3.300812 0.000000 0.000000 0.000000 -0.171940 -12.130974 -2.396093 -16.826673 19.954515 9.883384 27.017394 10.635492 6.869818 -10.259999 11.355891 -10.330079 0.000000 0.000000 0.000000 -0.535919 -10.717665 -2.781812 -18.093224 -18.398597 -10.967050 13.156352 10.051434 -3.266241 4.336099 7.980525 11.860750 0.000000 0.000000 0.000000 -0.501392 -11.085715 -2.274539 -0.182287 0.212631 -0.716370 2.604175 -0.649382 -1.477848 -0.425300 -0.614713 -0.454933 0.000000 0.000000 0.000000 -0.645892 -0.545988 -0.680994 0.162073 1.035835 0.361871 0.000000 0.000000 0.000000 -0.390235 -0.574015 -0.824811 -0.924339 9.696707 -3.158629 41.148751 -62.096344 -24.736935 -0.365869 -29.036668 -0.623700 0.000000 0.000000 0.000000 -0.721292 -0.474793 -0.488692 4.547618 6.462939 -14.906726 -35.799692 -16.263982 37.306589 -177.088200 74.826908 177.216717 0.000000 0.000000 0.000000 
5.389209 91.927872 3.331623 0.000000 0.000000 0.000000 -0.229967 -11.589944 -2.424671 -16.930719 19.663787 10.108596 26.998624 10.726210 6.927199 -9.944561 11.210505 -10.586907 0.000000 0.000000 0.000000 -0.577875 -10.175740 -2.813093 -17.806954 -18.368706 -10.730167 13.466600 10.064788 -3.041667 4.023807 7.266779 11.428023 0.000000 0.000000 0.000000 -0.562239 -10.544094 -2.305215 -0.178040 0.230254 -0.721612 2.598695 -0.635168 -1.301642 -0.452222 -0.627670 -0.366019 0.000000 0.000000 0.000000 -0.622369 -0.541895 -0.589150 0.103457 1.029135 0.345349 0.000000 0.000000 0.000000 -0.395068 -0.584361 -0.733391 -0.917176 9.714638 -3.166191 40.974947 -62.433803 -24.887696 -0.324276 -28.841273 -0.590184 0.000000 0.000000 0.000000 -0.728681 -0.492404 -0.403806 4.527083 6.438740 -13.978103 -32.962097 -13.475694 37.688663 -177.002221 75.867665 177.130192 0.000000 0.000000 0.000000 
5.072225 91.966988 3.361992 0.000000 0.000000 0.000000 -0.275717 -10.984154 -2.450167 -17.015091 19.301947 10.317680 26.920694 10.796949 6.985267 -9.605808 11.069670 -10.851005 0.000000 0.000000 0.000000 -0.619632 -9.569920 -2.842239 -17.515851 -18.412617 -10.499640 13.758768 10.087205 -2.826513 3.743974 6.586432 11.021980 0.000000 0.000000 0.000000 -0.612101 -9.952620 -2.330823 -0.170353 0.242512 -0.725992 2.587939 -0.637283 -1.131956 -0.478484 -0.648476 -0.287727 0.000000 0.000000 0.000000 -0.598026 -0.547795 -0.508172 0.036050 1.018959 0.342979 0.000000 0.000000 0.000000 -0.398990 -0.602041 -0.651770 -0.916766 9.732402 -3.107261 40.780792 -62.778844 -25.054657 -0.294645 -28.612829 -0.563152 0.000000 0.000000 0.000000 -0.733480 -0.519231 -0.328826 4.496397 6.406130 -12.909952 -30.045254 -10.533011 37.837657 -176.850851 76.939786 176.996375 0.000000 0.000000 0.000000 
4.746781 92.005325 3.384956 0.000000 0.000000 0.000000 -0.305932 -10.345346 -2.461484 -17.093761 18.880716 10.508065 26.796021 10.848072 7.032703 -9.229498 10.934874 -11.122569 0.000000 0.000000 0.000000 -0.653857 -8.937933 -2.853259 -17.253936 -18.517669 -10.290877 14.052109 10.112431 -2.653071 3.468019 5.963240 10.637489 0.000000 0.000000 0.000000 -0.648741 -9.339747 -2.340590 -0.161326 0.253849 -0.716908 2.568786 -0.649967 -0.970801 -0.505108 -0.674076 -0.222321 0.000000 0.000000 0.000000 -0.575361 -0.560136 -0.441822 -0.042281 1.006131 0.352569 0.000000 0.000000 0.000000 -0.403174 -0.624019 -0.583641 -0.924590 9.750941 -2.987647 40.587996 -63.133624 -25.211495 -0.273851 -28.348873 -0.542341 0.000000 0.000000 0.000000 -0.734448 -0.550173 -0.265385 4.455698 6.364207 -11.722655 -27.017206 -7.460371 37.766373 -176.606644 78.081903 176.788846 0.000000 0.000000 0.000000 
4.419462 92.039749 3.399933 0.000000 0.000000 0.000000 -0.315181 -9.722013 -2.450902 -17.181257 18.424638 10.681539 26.649503 10.885783 7.061446 -8.828327 10.809566 -11.393514 0.000000 0.000000 0.000000 -0.669576 -8.323251 -2.837241 -17.053037 -18.668843 -10.110243 14.379524 10.134983 -2.538693 3.128420 5.408713 10.276060 0.000000 0.000000 0.000000 -0.665078 -8.743376 -2.328031 -0.163888 0.266655 -0.708597 2.537823 -0.665492 -0.816816 -0.534966 -0.700141 -0.168831 0.000000 0.000000 0.000000 -0.560067 -0.574281 -0.389471 -0.130310 0.991579 0.368793 0.000000 0.000000 0.000000 -0.409789 -0.646990 -0.528279 -0.938920 9.769711 -2.832960 40.430929 -63.489737 -25.328915 -0.262001 -28.063026 -0.528282 0.000000 0.000000 0.000000 -0.732766 -0.581200 -0.212863 4.409061 6.310144 -10.463312 -23.875415 -4.297730 37.522522 -176.252854 79.362126 176.488031 0.000000 0.000000 0.000000 
4.094085 92.064423 3.410053 0.000000 0.000000 0.000000 -0.298010 -9.151523 -2.416063 -17.288862 17.959597 10.837966 26.501364 10.910457 7.069712 -8.417095 10.695673 -11.658272 0.000000 0.000000 0.000000 -0.662935 -7.766924 -2.790006 -16.933847 -18.851807 -9.952814 14.759036 10.148755 -2.486933 2.691568 4.939837 9.953686 0.000000 0.000000 0.000000 -0.657121 -8.196779 -2.291615 -0.169301 0.269815 -0.703180 2.493252 -0.679644 -0.666187 -0.572497 -0.724792 -0.120920 0.000000 0.000000 0.000000 -0.555874 -0.587486 -0.344074 -0.225567 0.976157 0.384526 0.000000 0.000000 0.000000 -0.424197 -0.668606 -0.479969 -0.958213 9.793024 -2.677395 40.368419 -63.832605 -25.359678 -0.256873 -27.779440 -0.518050 0.000000 0.000000 0.000000 -0.732732 -0.609393 -0.165197 4.360098 6.246828 -9.188062 -20.632330 -1.086507 37.179892 -175.709690 80.873511 176.004139 0.000000 0.000000 0.000000 
